ffmpeg started on 2016-12-05 at 12:57:42
Report written to "Output/x264/results/ffmpeg/crowd_run_2160p50faster2500k.log"
Command line:
Tools/ffmpeg/ffmpeg -benchmark -y -i Input/y4m/crowd_run_2160p50.y4m -c:v libx264 -preset faster -b:v 2500k -an Output/x264/encoded/crowd_run_2160p50faster2500k.mkv
ffmpeg version N-82227-gdb23fde Copyright (c) 2000-2016 the FFmpeg developers
  built with gcc 5.4.0 (Ubuntu 5.4.0-6ubuntu1~16.04.2) 20160609
  configuration: --prefix=/home/jaroslav/ffmpeg_build --pkg-config-flags=--static --extra-cflags=-I/home/jaroslav/ffmpeg_build/include --extra-ldflags=-L/home/jaroslav/ffmpeg_build/lib --bindir=/home/jaroslav/bin --enable-gpl --enable-libass --enable-libfdk-aac --enable-libfreetype --enable-libmp3lame --enable-libopus --enable-libtheora --enable-libvorbis --enable-libvpx --enable-libx264 --enable-libx265 --enable-nvenc --enable-libmfx --enable-libxvid --enable-libgsm --enable-libopencore-amrnb --enable-version3 --enable-nonfree
  libavutil      55. 35.100 / 55. 35.100
  libavcodec     57. 66.101 / 57. 66.101
  libavformat    57. 57.100 / 57. 57.100
  libavdevice    57.  2.100 / 57.  2.100
  libavfilter     6. 66.100 /  6. 66.100
  libswscale      4.  3.100 /  4.  3.100
  libswresample   2.  4.100 /  2.  4.100
  libpostproc    54.  2.100 / 54.  2.100
Input #0, yuv4mpegpipe, from 'Input/y4m/crowd_run_2160p50.y4m':
  Duration: 00:00:10.00, start: 0.000000, bitrate: 4976642 kb/s
    Stream #0:0: Video: rawvideo (I420 / 0x30323449), yuv420p(progressive), 3840x2160, SAR 1:1 DAR 16:9, 50 fps, 50 tbr, 50 tbn, 50 tbc
[libx264 @ 0x353b1c0] using SAR=1/1
[libx264 @ 0x353b1c0] using cpu capabilities: MMX2 SSE2Fast SSSE3 SSE4.2 AVX FMA3 AVX2 LZCNT BMI2
[libx264 @ 0x353b1c0] profile High, level 5.2
[libx264 @ 0x353b1c0] 264 - core 148 - H.264/MPEG-4 AVC codec - Copyleft 2003-2016 - http://www.videolan.org/x264.html - options: cabac=1 ref=2 deblock=1:0:0 analyse=0x3:0x113 me=hex subme=4 psy=1 psy_rd=1.00:0.00 mixed_ref=0 me_range=16 chroma_me=1 trellis=1 8x8dct=1 cqm=0 deadzone=21,11 fast_pskip=1 chroma_qp_offset=0 threads=6 lookahead_threads=1 sliced_threads=0 nr=0 decimate=1 interlaced=0 bluray_compat=0 constrained_intra=0 bframes=3 b_pyramid=2 b_adapt=1 b_bias=0 direct=1 weightb=1 open_gop=0 weightp=1 keyint=250 keyint_min=25 scenecut=40 intra_refresh=0 rc_lookahead=20 rc=abr mbtree=1 bitrate=2500 ratetol=1.0 qcomp=0.60 qpmin=0 qpmax=69 qpstep=4 ip_ratio=1.40 aq=1:1.00
Output #0, matroska, to 'Output/x264/encoded/crowd_run_2160p50faster2500k.mkv':
  Metadata:
    encoder         : Lavf57.57.100
    Stream #0:0: Video: h264 (libx264) (H264 / 0x34363248), yuv420p, 3840x2160 [SAR 1:1 DAR 16:9], q=-1--1, 2500 kb/s, 50 fps, 1k tbn, 50 tbc
    Metadata:
      encoder         : Lavc57.66.101 libx264
    Side data:
      cpb: bitrate max/min/avg: 0/0/2500000 buffer size: 0 vbv_delay: -1
Stream mapping:
  Stream #0:0 -> #0:0 (rawvideo (native) -> h264 (libx264))
Press [q] to stop, [?] for help
frame=    9 fps=0.0 q=0.0 size=       0kB time=00:00:00.00 bitrate=N/A speed=   0x    frame=   14 fps= 14 q=0.0 size=       0kB time=00:00:00.00 bitrate=N/A speed=   0x    frame=   24 fps= 15 q=0.0 size=       0kB time=00:00:00.00 bitrate=N/A speed=   0x    frame=   27 fps= 10 q=0.0 size=       0kB time=00:00:00.00 bitrate=N/A speed=   0x    frame=   36 fps= 11 q=51.0 size=       1kB time=00:00:00.06 bitrate=  96.1kbits/s speed=0.0188x    frame=   44 fps= 12 q=63.0 size=       1kB time=00:00:00.22 bitrate=  26.5kbits/s speed=0.0588x    frame=   52 fps= 12 q=64.0 size=       1kB time=00:00:00.38 bitrate=  15.4kbits/s speed=0.0892x    frame=   61 fps= 13 q=65.0 size=       1kB time=00:00:00.56 bitrate=  10.5kbits/s speed=0.117x    frame=   70 fps= 13 q=66.0 size=       1kB time=00:00:00.74 bitrate=   7.9kbits/s speed=0.14x    frame=   79 fps= 14 q=66.0 size=       1kB time=00:00:00.92 bitrate=   6.4kbits/s speed=0.159x    frame=   88 fps= 14 q=66.0 size=       1kB time=00:00:01.10 bitrate=   5.3kbits/s speed=0.171x    frame=   97 fps= 14 q=66.0 size=       1kB time=00:00:01.28 bitrate=   4.6kbits/s speed=0.184x    frame=  106 fps= 14 q=66.0 size=       1kB time=00:00:01.46 bitrate=   4.0kbits/s speed=0.195x    frame=  115 fps= 14 q=65.0 size=       1kB time=00:00:01.64 bitrate=   3.6kbits/s speed=0.206x    frame=  124 fps= 14 q=65.0 size=       1kB time=00:00:01.82 bitrate=   3.2kbits/s speed=0.211x    frame=  133 fps= 15 q=65.0 size=       1kB time=00:00:02.00 bitrate=   2.9kbits/s speed=0.219x    frame=  142 fps= 15 q=65.0 size=       1kB time=00:00:02.18 bitrate=   2.7kbits/s speed=0.226x    frame=  151 fps= 15 q=64.0 size=       1kB time=00:00:02.36 bitrate=   2.5kbits/s speed=0.233x    frame=  160 fps= 15 q=64.0 size=       1kB time=00:00:02.54 bitrate=   2.3kbits/s speed=0.236x    frame=  169 fps= 15 q=64.0 size=       1kB time=00:00:02.72 bitrate=   2.2kbits/s speed=0.241x    frame=  177 fps= 15 q=64.0 size=       1kB time=00:00:02.88 bitrate=   2.0kbits/s speed=0.244x    frame=  186 fps= 15 q=64.0 size=       1kB time=00:00:03.06 bitrate=   1.9kbits/s speed=0.249x    frame=  195 fps= 15 q=64.0 size=       1kB time=00:00:03.24 bitrate=   1.8kbits/s speed=0.253x    frame=  204 fps= 15 q=64.0 size=       1kB time=00:00:03.42 bitrate=   1.7kbits/s speed=0.255x    frame=  213 fps= 15 q=64.0 size=       1kB time=00:00:03.60 bitrate=   1.6kbits/s speed=0.258x    frame=  222 fps= 15 q=64.0 size=       1kB time=00:00:03.78 bitrate=   1.6kbits/s speed=0.262x    frame=  231 fps= 15 q=64.0 size=       1kB time=00:00:03.96 bitrate=   1.5kbits/s speed=0.265x    frame=  240 fps= 15 q=64.0 size=       1kB time=00:00:04.14 bitrate=   1.4kbits/s speed=0.266x    frame=  249 fps= 15 q=64.0 size=       1kB time=00:00:04.32 bitrate=   1.4kbits/s speed=0.268x    frame=  258 fps= 16 q=64.0 size=       1kB time=00:00:04.50 bitrate=   1.3kbits/s speed=0.271x    frame=  267 fps= 16 q=64.0 size=       1kB time=00:00:04.68 bitrate=   1.3kbits/s speed=0.274x    frame=  276 fps= 16 q=61.0 size=       1kB time=00:00:04.86 bitrate=   1.2kbits/s speed=0.274x    frame=  277 fps= 15 q=64.0 size=       1kB time=00:00:04.88 bitrate=   1.2kbits/s speed=0.267x    frame=  286 fps= 15 q=64.0 size=    1638kB time=00:00:05.06 bitrate=2651.8kbits/s speed=0.269x    frame=  295 fps= 15 q=64.0 size=    1638kB time=00:00:05.24 bitrate=2560.7kbits/s speed=0.271x    frame=  304 fps= 15 q=64.0 size=    1638kB time=00:00:05.42 bitrate=2475.7kbits/s speed=0.273x    frame=  313 fps= 15 q=64.0 size=    1638kB time=00:00:05.60 bitrate=2396.1kbits/s speed=0.275x    frame=  318 fps= 15 q=64.0 size=    1638kB time=00:00:05.70 bitrate=2354.1kbits/s speed=0.273x    frame=  327 fps= 15 q=64.0 size=    1638kB time=00:00:05.88 bitrate=2282.0kbits/s speed=0.275x    frame=  336 fps= 15 q=64.0 size=    1638kB time=00:00:06.06 bitrate=2214.3kbits/s speed=0.276x    frame=  345 fps= 15 q=64.0 size=    1638kB time=00:00:06.24 bitrate=2150.4kbits/s speed=0.278x    frame=  354 fps= 15 q=64.0 size=    1638kB time=00:00:06.42 bitrate=2090.1kbits/s speed=0.278x    frame=  363 fps= 15 q=64.0 size=    1638kB time=00:00:06.60 bitrate=2033.1kbits/s speed=0.28x    frame=  372 fps= 15 q=65.0 size=    1638kB time=00:00:06.78 bitrate=1979.2kbits/s speed=0.282x    frame=  381 fps= 15 q=64.0 size=    1638kB time=00:00:06.96 bitrate=1928.0kbits/s speed=0.283x    frame=  390 fps= 15 q=64.0 size=    1638kB time=00:00:07.14 bitrate=1879.4kbits/s speed=0.283x    frame=  399 fps= 15 q=65.0 size=    1638kB time=00:00:07.32 bitrate=1833.2kbits/s speed=0.284x    frame=  405 fps= 15 q=65.0 size=    1638kB time=00:00:07.44 bitrate=1803.6kbits/s speed=0.283x    frame=  412 fps= 15 q=65.0 size=    1638kB time=00:00:07.58 bitrate=1770.3kbits/s speed=0.283x    frame=  418 fps= 15 q=65.0 size=    1638kB time=00:00:07.70 bitrate=1742.7kbits/s speed=0.281x    frame=  427 fps= 15 q=65.0 size=    1638kB time=00:00:07.88 bitrate=1702.9kbits/s speed=0.282x    frame=  436 fps= 15 q=65.0 size=    1638kB time=00:00:08.06 bitrate=1664.9kbits/s speed=0.283x    frame=  445 fps= 15 q=65.0 size=    1638kB time=00:00:08.24 bitrate=1628.5kbits/s speed=0.284x    frame=  449 fps= 15 q=65.0 size=    1638kB time=00:00:08.32 bitrate=1612.9kbits/s speed=0.282x    frame=  456 fps= 15 q=65.0 size=    1638kB time=00:00:08.46 bitrate=1586.2kbits/s speed=0.282x    frame=  465 fps= 15 q=65.0 size=    1638kB time=00:00:08.64 bitrate=1553.1kbits/s speed=0.283x    frame=  474 fps= 15 q=65.0 size=    1638kB time=00:00:08.82 bitrate=1521.4kbits/s speed=0.283x    frame=  483 fps= 15 q=65.0 size=    1638kB time=00:00:09.00 bitrate=1491.0kbits/s speed=0.284x    frame=  492 fps= 15 q=65.0 size=    1638kB time=00:00:09.18 bitrate=1461.8kbits/s speed=0.285x    frame=  500 fps= 15 q=65.0 size=    1638kB time=00:00:09.34 bitrate=1436.7kbits/s speed=0.285x    frame=  500 fps= 15 q=-1.0 Lsize=    3277kB time=00:00:09.94 bitrate=2700.6kbits/s speed=0.294x    
video:3273kB audio:0kB subtitle:0kB other streams:0kB global headers:0kB muxing overhead: 0.129075%
bench: utime=96.556s
bench: maxrss=1336048kB
[libx264 @ 0x353b1c0] frame I:2     Avg QP:46.38  size: 77746
[libx264 @ 0x353b1c0] frame P:126   Avg QP:50.91  size: 12241
[libx264 @ 0x353b1c0] frame B:372   Avg QP:50.96  size:  4443
[libx264 @ 0x353b1c0] consecutive B-frames:  0.8%  0.0%  0.0% 99.2%
[libx264 @ 0x353b1c0] mb I  I16..4: 56.0% 43.3%  0.7%
[libx264 @ 0x353b1c0] mb P  I16..4:  7.2%  3.1%  0.0%  P16..4: 13.9%  1.3%  0.2%  0.0%  0.0%    skip:74.4%
[libx264 @ 0x353b1c0] mb B  I16..4:  0.0%  0.0%  0.0%  B16..8:  7.8%  0.0%  0.0%  direct: 0.7%  skip:91.4%  L0:46.2% L1:53.7% BI: 0.0%
[libx264 @ 0x353b1c0] final ratefactor: 56.46
[libx264 @ 0x353b1c0] 8x8 transform intra:31.9% inter:96.1%
[libx264 @ 0x353b1c0] coded y,uvDC,uvAC intra: 5.5% 14.4% 1.6% inter: 0.1% 0.6% 0.0%
[libx264 @ 0x353b1c0] i16 v,h,dc,p: 81% 13%  5%  1%
[libx264 @ 0x353b1c0] i8 v,h,dc,ddl,ddr,vr,hd,vl,hu: 11% 10% 55%  5%  4%  4%  4%  4%  4%
[libx264 @ 0x353b1c0] i4 v,h,dc,ddl,ddr,vr,hd,vl,hu: 22% 16% 16% 10%  9%  8%  7%  6%  6%
[libx264 @ 0x353b1c0] i8c dc,h,v,p: 98%  1%  1%  0%
[libx264 @ 0x353b1c0] Weighted P-Frames: Y:1.6% UV:0.0%
[libx264 @ 0x353b1c0] ref P L0: 56.8% 43.2%
[libx264 @ 0x353b1c0] ref B L0: 79.1% 20.9%
[libx264 @ 0x353b1c0] ref B L1: 90.7%  9.3%
[libx264 @ 0x353b1c0] kb/s:2680.69
